<svg viewBox="0 0 400 250" xmlns="http://www.w3.org/2000/svg">
  <defs>
    <style>
      @keyframes pulse {
        0% { opacity: 0.7; }
        50% { opacity: 1; }
        100% { opacity: 0.7; }
      }
      .pulse-animation { animation: pulse 3s ease-in-out infinite; }
    </style>
    <linearGradient id="cardGradient" x1="0%" y1="0%" x2="100%" y2="100%">
      <stop offset="0%" style="stop-color:#9c27b0;stop-opacity:1" />
      <stop offset="100%" style="stop-color:#673ab7;stop-opacity:1" />
    </linearGradient>
    <linearGradient id="chipGradient" x1="0%" y1="0%" x2="100%" y2="100%">
      <stop offset="0%" style="stop-color:#ffd700;stop-opacity:1" />
      <stop offset="100%" style="stop-color:#ffaa00;stop-opacity:1" />
    </linearGradient>
  </defs>
  
  <!-- Card body -->
  <rect x="50" y="50" width="300" height="180" rx="15" ry="15" fill="url(#cardGradient)" />
  
  <!-- Bank logo -->
  <circle cx="85" cy="85" r="20" fill="white" opacity="0.8" />
  <rect x="75" y="75" width="20" height="20" rx="3" ry="3" fill="white" opacity="0.5" />
  
  <!-- Card chip -->
  <rect x="85" y="120" width="45" height="35" rx="4" ry="4" fill="url(#chipGradient)" />
  <rect x="90" y="127" width="35" height="4" fill="#a67c00" />
  <rect x="90" y="135" width="35" height="4" fill="#a67c00" />
  <rect x="90" y="143" width="35" height="4" fill="#a67c00" />
  
  <!-- NFC symbol -->
  <path d="M150,125 Q155,115 160,125 Q165,115 170,125" stroke="white" stroke-width="2" fill="none" class="pulse-animation" />
  
  <!-- Card number -->
  <rect x="85" y="170" width="35" height="7" rx="3" ry="3" fill="white" opacity="0.9" />
  <rect x="130" y="170" width="35" height="7" rx="3" ry="3" fill="white" opacity="0.9" />
  <rect x="175" y="170" width="35" height="7" rx="3" ry="3" fill="white" opacity="0.9" />
  <rect x="220" y="170" width="35" height="7" rx="3" ry="3" fill="white" opacity="0.9" />
  
  <!-- Card holder name -->
  <rect x="85" y="195" width="60" height="5" rx="2" ry="2" fill="white" opacity="0.7" />
  
  <!-- Expiry date -->
  <rect x="155" y="195" width="25" height="5" rx="2" ry="2" fill="white" opacity="0.7" />
  
  <!-- Card network logos -->
  <circle cx="290" cy="85" r="15" fill="white" opacity="0.8" />
  <circle cx="300" cy="85" r="15" fill="white" opacity="0.5" />
  
  <!-- Security hologram -->
  <ellipse cx="260" cy="195" rx="20" ry="10" fill="url(#cardGradient)" stroke="white" stroke-width="0.5" opacity="0.6" class="pulse-animation" />
  <ellipse cx="260" cy="195" rx="15" ry="7" fill="none" stroke="white" stroke-width="0.5" opacity="0.6" />
</svg>